<svg width="800" height="480" viewBox="0 0 800 480" xmlns="http://www.w3.org/2000/svg" role="img" aria-labelledby="t d">
<title id="t">Balança entre conteúdo relevante e experiência de página</title>
<desc id="d">Ilustração de uma balança mostrando 'Conteúdo relevante' com peso maior de um lado, e 'Experiência de página (Core Web Vitals)' como peso complementar do outro, deixando claro que performance é parte do conjunto de fatores de SEO.</desc>
<rect width="800" height="480" fill="#eef2f7"/>
<rect x="396" y="190" width="8" height="90" fill="#021d3f"/><rect x="354" y="280" width="92" height="14" rx="6" fill="#021d3f"/><circle cx="400" cy="184" r="7" fill="#021d3f"/><line x1="260.0" y1="208.6857772991851" x2="540.0" y2="159.3142227008149" stroke="#021d3f" stroke-width="5" stroke-linecap="round"/><line x1="260.0" y1="208.6857772991851" x2="260.0" y2="242.6857772991851" stroke="#021d3f" stroke-width="3" stroke-linecap="round"/><line x1="540.0" y1="159.3142227008149" x2="540.0" y2="193.3142227008149" stroke="#021d3f" stroke-width="3" stroke-linecap="round"/><path d="M230.0 242.6857772991851 q30 22 60 0 z" fill="#f6cbd8" opacity="0.9"/><path d="M510.0 193.3142227008149 q30 22 60 0 z" fill="#e4ecf6" opacity="0.9"/><text x="260.0" y="126.81016147359335" font-family="Arial, Helvetica, sans-serif" font-size="14.5" font-weight="700" fill="#021d3f" text-anchor="middle">Conteúdo relevante</text><text x="260.0" y="146.81016147359335" font-family="Arial, Helvetica, sans-serif" font-size="12" font-weight="600" fill="#7d90a6" text-anchor="middle">(fator principal)</text><text x="540.0" y="137.18983852640665" font-family="Arial, Helvetica, sans-serif" font-size="14.5" font-weight="700" fill="#021d3f" text-anchor="middle">Experiência de página</text><text x="540.0" y="157.18983852640665" font-family="Arial, Helvetica, sans-serif" font-size="12" font-weight="600" fill="#7d90a6" text-anchor="middle">(Core Web Vitals)</text><rect x="537.3610621709846" y="85.66983852640665" width="5.277875658030852" height="6.4" fill="#0a3164" transform="rotate(0.0 540.0 105.18983852640665)"/><rect x="537.3610621709846" y="85.66983852640665" width="5.277875658030852" height="6.4" fill="#0a3164" transform="rotate(45.0 540.0 105.18983852640665)"/><rect x="537.3610621709846" y="85.66983852640665" width="5.277875658030852" height="6.4" fill="#0a3164" transform="rotate(90.0 540.0 105.18983852640665)"/><rect x="537.3610621709846" y="85.66983852640665" width="5.277875658030852" height="6.4" fill="#0a3164" transform="rotate(135.0 540.0 105.18983852640665)"/><rect x="537.3610621709846" y="85.66983852640665" width="5.277875658030852" height="6.4" fill="#0a3164" transform="rotate(180.0 540.0 105.18983852640665)"/><rect x="537.3610621709846" y="85.66983852640665" width="5.277875658030852" height="6.4" fill="#0a3164" transform="rotate(225.0 540.0 105.18983852640665)"/><rect x="537.3610621709846" y="85.66983852640665" width="5.277875658030852" height="6.4" fill="#0a3164" transform="rotate(270.0 540.0 105.18983852640665)"/><rect x="537.3610621709846" y="85.66983852640665" width="5.277875658030852" height="6.4" fill="#0a3164" transform="rotate(315.0 540.0 105.18983852640665)"/><circle cx="540.0" cy="105.18983852640665" r="16" fill="#0a3164"/><circle cx="540.0" cy="105.18983852640665" r="4.840000000000001" fill="#ffffff"/>
</svg>