<svg width="800" height="480" viewBox="0 0 800 480" xmlns="http://www.w3.org/2000/svg" role="img" aria-labelledby="t d">
<title id="t">Site institucional da Patrono Jr. em desktop e mobile</title>
<desc id="d">Mockup do site institucional da Patrono Assessoria e Consultoria Júnior exibido em desktop e smartphone, mostrando a estrutura clara de páginas e os serviços jurídicos oferecidos.</desc>
<rect width="800" height="480" fill="#eef2f7"/>
<rect x="60" y="80" width="380" height="280" rx="12" fill="#ffffff" stroke="#cfd9e6" stroke-width="1.5"/><path d="M60 106 v-14 a12 12 0 0 1 12 -12 h356 a12 12 0 0 1 12 12 v14 z" fill="#e4ecf6"/><circle cx="76" cy="93.0" r="3.5" fill="#e0024d"/><circle cx="90" cy="93.0" r="3.5" fill="#c8790a"/><circle cx="104" cy="93.0" r="3.5" fill="#1f9d63"/><rect x="190.0" y="87.0" width="120" height="12" rx="6" fill="#ffffff" opacity="1"/><rect x="74" y="120" width="352" height="60" rx="6" fill="#021d3f"/><line x1="100" y1="135.0" x2="100" y2="160.5" stroke="#ffffff" stroke-width="4" stroke-linecap="round"/><line x1="87.4" y1="141.6" x2="112.6" y2="141.6" stroke="#ffffff" stroke-width="4" stroke-linecap="round"/><rect x="95.2" y="159.6" width="9.6" height="3.0" rx="4" fill="#ffffff"/><line x1="87.4" y1="141.6" x2="87.4" y2="147.0" stroke="#ffffff" stroke-width="2" stroke-linecap="round"/><path d="M83.2 147.0 a4.2 4.2 0 0 0 8.4 0 Z" fill="#ffffff" opacity="0.85"/><line x1="112.6" y1="141.6" x2="112.6" y2="147.0" stroke="#ffffff" stroke-width="2" stroke-linecap="round"/><path d="M108.39999999999999 147.0 a4.2 4.2 0 0 0 8.4 0 Z" fill="#ffffff" opacity="0.85"/><rect x="140" y="136" width="260" height="12" rx="3" fill="#ffffff" opacity="0.85"/><rect x="140" y="156" width="200" height="10" rx="3" fill="#ffffff" opacity="0.55"/><rect x="74.0" y="196" width="170.0" height="100" rx="6" fill="#e4ecf6"/><rect x="256.0" y="196" width="170.0" height="100" rx="6" fill="#e4ecf6"/><rect x="500" y="60" width="150" height="300" rx="22" fill="#021d3f"/><rect x="506" y="76" width="138" height="270" rx="14" fill="#ffffff"/><rect x="559.0" y="348" width="32" height="4" rx="2" fill="#9fb3ca"/><rect x="516" y="86" width="118" height="44" rx="5" fill="#021d3f"/><line x1="575.0" y1="98.0" x2="575.0" y2="115.0" stroke="#ffffff" stroke-width="4" stroke-linecap="round"/><line x1="566.6" y1="102.4" x2="583.4" y2="102.4" stroke="#ffffff" stroke-width="4" stroke-linecap="round"/><rect x="571.8" y="114.4" width="6.4" height="2.0" rx="4" fill="#ffffff"/><line x1="566.6" y1="102.4" x2="566.6" y2="106.0" stroke="#ffffff" stroke-width="2" stroke-linecap="round"/><path d="M563.8000000000001 106.0 a2.8000000000000003 2.8000000000000003 0 0 0 5.6000000000000005 0 Z" fill="#ffffff" opacity="0.85"/><line x1="583.4" y1="102.4" x2="583.4" y2="106.0" stroke="#ffffff" stroke-width="2" stroke-linecap="round"/><path d="M580.6 106.0 a2.8000000000000003 2.8000000000000003 0 0 0 5.6000000000000005 0 Z" fill="#ffffff" opacity="0.85"/><rect x="516" y="142" width="118" height="70" rx="6" fill="#e4ecf6"/><rect x="516" y="222" width="118" height="60" rx="6" fill="#f6cbd8"/>
</svg>