<svg width="308" height="54" viewBox="0 0 308 54" fill="none" xmlns="http://www.w3.org/2000/svg">
<mask id="mask0_2819_1675" style="mask-type:luminance" maskUnits="userSpaceOnUse" x="0" y="0" width="308" height="54">
<path d="M307.233 0H0V53.4319H307.233V0Z" fill="white"/>
</mask>
<g mask="url(#mask0_2819_1675)">
<path d="M218.331 21.231L218.097 20.9973H187.478V26.0292H216.017L221.351 31.3617V33.1918H195.756L195.522 33.4255L187.712 41.2359L187.478 41.4697V50.4182H216.696L216.929 50.1844L221.335 45.779V50.4262H226.367V29.2752L226.133 29.0414L218.331 21.231ZM211.74 45.3863H192.502V43.5562L197.834 38.2237H221.343V38.6605L220.183 39.82L214.617 45.3863H211.74ZM266.997 27.528L264.631 25.1636L261.211 21.744L260.977 21.5089H241.432L241.198 21.7427L237.779 25.1623L236.785 26.1575V6.58803H231.753V50.9378H236.785V46.2906L237.779 47.2844L241.198 50.7041L241.432 50.9378H260.977L261.211 50.7041L264.631 47.2844L265.279 46.6366L267.003 44.9134L270.423 41.4937L270.657 41.2586V31.1961L270.423 30.9623L266.997 27.528ZM257.121 45.8912H243.519L237.952 40.3249L236.791 39.1655V33.2679L237.952 32.1071L243.519 26.5408H258.891L264.457 32.1071L265.618 33.2679V39.1574L264.457 40.3182L258.891 45.8832L257.121 45.8912ZM5.03195 32.755L6.19142 31.5955L11.7657 26.0212H27.1394L32.6896 31.5728L32.9301 31.8132H40.0419L38.6633 30.4347L35.2517 27.015L32.878 24.6507L29.4583 21.231L29.2246 20.9906H9.67919L9.43874 21.231L6.02578 24.6507L3.65341 27.015L0.233765 30.4347L0 30.6698V40.739L0.233765 40.9728L3.65341 44.3924L5.37792 46.1169L6.02578 46.7648L9.43741 50.1778L9.67785 50.4182H29.2246L29.4583 50.1778L32.878 46.7648L33.5258 46.1169L35.2517 44.3938L38.6633 40.9741L40.0419 39.6023H32.9234L32.6896 39.836L27.1394 45.3863H11.7657L6.19142 39.8133L5.03195 38.6525V32.755ZM123.56 6.0684H122.753V25.6365L121.759 24.6427L118.34 21.223L118.106 20.9893H98.5591L98.3267 21.223L94.9071 24.6427L92.5414 27.007L89.1217 30.4267L88.888 30.6618V40.7243L89.1217 40.9581L92.5414 44.3777L94.2659 46.1023L94.9138 46.7501L98.3334 50.1697L98.5672 50.4035H118.114L118.348 50.1697L121.767 46.7501L122.761 45.7563V50.4035H127.793V6.05371H123.56V6.0684ZM113.142 45.3863H100.646L95.0794 39.82L93.9199 38.6605V32.7697L95.0794 31.6102L100.646 26.0439H116.019L121.586 31.6102L122.745 32.7697V38.6685L121.586 39.828L116.019 45.3943H113.142V45.3863ZM165.935 39.6023H165.604L165.37 39.836L159.82 45.3863H144.453L138.887 39.82L137.727 38.6605V38.2304H171.601V30.6765L171.367 30.4427L167.947 27.0231L165.581 24.6587L162.162 21.2391L161.928 21.0053H142.389L142.157 21.2391L138.737 24.6587L136.372 27.0231L132.952 30.4427L132.718 30.6765V40.739L132.952 40.9728L136.372 44.3924L138.096 46.1169L138.744 46.7648L142.164 50.1844L142.397 50.4182H161.936L162.17 50.1844L165.589 46.7648L166.237 46.1169L167.962 44.3938L171.381 40.9741L172.76 39.5942H165.935V39.6023ZM147.316 26.0212H159.804L165.37 31.5875L166.531 32.7483V33.1757H137.69V32.7483L138.849 31.5875L144.416 26.0212H147.316ZM177.61 6.0684H176.797V50.4182H181.829V6.0684H177.61ZM306.428 23.212H275.877V28.244H302.201V30.074L296.869 35.4065H284.155L283.921 35.6403L276.111 43.4507L275.877 43.6845V52.633H307.233V47.601H280.908V45.771L286.241 40.4385H298.955L299.189 40.2047L306.993 32.393L307.233 32.1605V23.212H306.428Z" fill="white"/>
<path d="M57.0041 18.7678H45.6685V33.1543H42.9863V36.6715H45.6685V51.2918H48.2146V51.3225H60.198V47.796H49.1937V36.7396L47.3637 35.0298L49.1937 33.32V22.2943H60.5213V13.4353H57.0041V18.7678ZM85.4165 33.1543H82.7262V18.7678H71.3893V13.4353H67.8722V22.2916H79.2077V33.32L81.0311 35.0298L79.2077 36.7396V47.7973H68.1968V51.3225H80.1789V51.2918H82.7262V36.6715H85.4152L85.4165 33.1543ZM65.9673 10.188H62.4274V13.7278H65.9673V10.188ZM68.8005 5.35237H65.2607V8.89223H68.8005V5.35237ZM66.0662 0.667725H62.5263V4.20759H66.0662V0.667725Z" fill="#FF3F80"/>
</g>
</svg>
