<svg width="800" height="480" viewBox="0 0 800 480" xmlns="http://www.w3.org/2000/svg" role="img" aria-labelledby="t d">
<title id="t">Planejamento do orçamento de um site profissional</title>
<desc id="d">Mesa de trabalho com um navegador exibindo um layout de site em construção ao lado de uma folha de orçamento impresso, representando a fase de planejamento e precificação do projeto.</desc>
<rect width="800" height="480" fill="#eef2f7"/>
<rect x="60" y="90" width="420" height="260" rx="12" fill="#ffffff" stroke="#cfd9e6" stroke-width="1.5"/><path d="M60 116 v-14 a12 12 0 0 1 12 -12 h396 a12 12 0 0 1 12 12 v14 z" fill="#e4ecf6"/><circle cx="76" cy="103.0" r="3.5" fill="#e0024d"/><circle cx="90" cy="103.0" r="3.5" fill="#c8790a"/><circle cx="104" cy="103.0" r="3.5" fill="#1f9d63"/><rect x="210.0" y="97.0" width="120" height="12" rx="6" fill="#ffffff" opacity="1"/><rect x="76" y="132" width="210.0" height="18" rx="4" fill="#cfd9e6"/><rect x="76" y="160" width="388" height="94" rx="8" fill="#e4ecf6"/><rect x="76" y="280" width="126.0" height="40" rx="6" fill="#f6cbd8"/><rect x="218.8" y="280" width="126.0" height="40" rx="6" fill="#e4ecf6"/><rect x="500" y="130" width="190" height="230" rx="8" fill="#ffffff" stroke="#cfd9e6" stroke-width="1.5"/><rect x="518" y="154" width="154" height="10" rx="3" fill="#cfd9e6"/><rect x="518" y="184" width="154" height="10" rx="3" fill="#cfd9e6"/><rect x="518" y="214" width="154" height="10" rx="3" fill="#cfd9e6"/><rect x="518" y="244" width="154" height="10" rx="3" fill="#cfd9e6"/><rect x="518" y="274" width="154" height="10" rx="3" fill="#cfd9e6"/><rect x="518" y="304" width="90" height="10" rx="3" fill="#e0024d"/><line x1="518" y1="330" x2="672" y2="330" stroke="#cfd9e6" stroke-width="1.5" stroke-linecap="round"/><text x="518" y="352" font-family="Arial, Helvetica, sans-serif" font-size="16" font-weight="800" fill="#e0024d" text-anchor="start">R$</text>
</svg>