<svg width="800" height="480" viewBox="0 0 800 480" xmlns="http://www.w3.org/2000/svg" role="img" aria-labelledby="t d">
<title id="t">Balança entre preço baixo e investimento sólido em um site</title>
<desc id="d">Ilustração de uma balança comparando 'preço baixo', com um cadeado aberto sinalizando risco, e 'investimento sólido', com um escudo sinalizando segurança e suporte de longo prazo.</desc>
<rect width="800" height="480" fill="#eef2f7"/>
<rect x="396" y="170" width="8" height="90" fill="#021d3f"/><rect x="354" y="260" width="92" height="14" rx="6" fill="#021d3f"/><circle cx="400" cy="164" r="7" fill="#021d3f"/><line x1="250.0" y1="137.55095289373025" x2="550.0" y2="190.44904710626975" stroke="#021d3f" stroke-width="5" stroke-linecap="round"/><line x1="250.0" y1="137.55095289373025" x2="250.0" y2="171.55095289373025" stroke="#021d3f" stroke-width="3" stroke-linecap="round"/><line x1="550.0" y1="190.44904710626975" x2="550.0" y2="224.44904710626975" stroke="#021d3f" stroke-width="3" stroke-linecap="round"/><path d="M220.0 171.55095289373025 q30 22 60 0 z" fill="#f6e2c6" opacity="0.9"/><path d="M520.0 224.44904710626975 q30 22 60 0 z" fill="#cdeee0" opacity="0.9"/><text x="250.0" y="73.55095289373025" font-family="Arial, Helvetica, sans-serif" font-size="15" font-weight="700" fill="#021d3f" text-anchor="middle">Preço baixo</text><circle cx="250.0" cy="103.55095289373025" r="20" fill="#c8790a"/><line x1="242.0" y1="95.55095289373025" x2="258.0" y2="111.55095289373025" stroke="#ffffff" stroke-width="4.4" stroke-linecap="round"/><line x1="242.0" y1="111.55095289373025" x2="258.0" y2="95.55095289373025" stroke="#ffffff" stroke-width="4.4" stroke-linecap="round"/><text x="550.0" y="126.44904710626975" font-family="Arial, Helvetica, sans-serif" font-size="15" font-weight="700" fill="#021d3f" text-anchor="middle">Investimento sólido</text><circle cx="550.0" cy="156.44904710626975" r="20" fill="#1f9d63"/><path d="M541.0 156.44904710626975 l6.0 6.0 l10.0 -11.0" fill="none" stroke="#ffffff" stroke-width="4.4" stroke-linecap="round" stroke-linejoin="round"/>
</svg>