<svg width="800" height="480" viewBox="0 0 800 480" xmlns="http://www.w3.org/2000/svg" role="img" aria-labelledby="t d">
<title id="t">Comparação visual entre site institucional e landing page</title>
<desc id="d">Imagem dividida ao meio mostrando, de um lado, a tela de um site institucional com menu completo e várias seções, e do outro, uma landing page enxuta com uma única oferta e botão de ação em destaque.</desc>
<rect width="800" height="480" fill="#eef2f7"/>
<rect x="50" y="70" width="330" height="300" rx="12" fill="#ffffff" stroke="#cfd9e6" stroke-width="1.5"/><path d="M50 96 v-14 a12 12 0 0 1 12 -12 h306 a12 12 0 0 1 12 12 v14 z" fill="#e4ecf6"/><circle cx="66" cy="83.0" r="3.5" fill="#e0024d"/><circle cx="80" cy="83.0" r="3.5" fill="#c8790a"/><circle cx="94" cy="83.0" r="3.5" fill="#1f9d63"/><rect x="155.0" y="77.0" width="120" height="12" rx="6" fill="#ffffff" opacity="1"/><rect x="64" y="110" width="302" height="22" rx="4" fill="#021d3f"/><rect x="64.0" y="110" width="71.5" height="22" rx="3" fill="#021d3f"/><rect x="139.5" y="110" width="71.5" height="22" rx="3" fill="#0a3164"/><rect x="215.0" y="110" width="71.5" height="22" rx="3" fill="#0a3164"/><rect x="290.5" y="110" width="71.5" height="22" rx="3" fill="#0a3164"/><rect x="64" y="146" width="302" height="54" rx="5" fill="#e4ecf6"/><rect x="64" y="216" width="302" height="54" rx="5" fill="#e4ecf6"/><rect x="64" y="286" width="302" height="54" rx="5" fill="#e4ecf6"/><text x="215.0" y="56" font-family="Arial, Helvetica, sans-serif" font-size="14" font-weight="700" fill="#021d3f" text-anchor="middle">Site institucional</text><rect x="420" y="70" width="330" height="300" rx="12" fill="#ffffff" stroke="#cfd9e6" stroke-width="1.5"/><path d="M420 96 v-14 a12 12 0 0 1 12 -12 h306 a12 12 0 0 1 12 12 v14 z" fill="#e4ecf6"/><circle cx="436" cy="83.0" r="3.5" fill="#e0024d"/><circle cx="450" cy="83.0" r="3.5" fill="#c8790a"/><circle cx="464" cy="83.0" r="3.5" fill="#1f9d63"/><rect x="525.0" y="77.0" width="120" height="12" rx="6" fill="#ffffff" opacity="1"/><rect x="450" y="120" width="270" height="60" rx="6" fill="#f6cbd8"/><rect x="470" y="196" width="230" height="14" rx="4" fill="#cfd9e6"/><rect x="490" y="218" width="190" height="14" rx="4" fill="#cfd9e6"/><rect x="515.0" y="256" width="140" height="34" rx="17" fill="#e0024d"/><text x="585.0" y="278" font-family="Arial, Helvetica, sans-serif" font-size="12" font-weight="700" fill="#ffffff" text-anchor="middle">Quero começar</text><text x="585.0" y="56" font-family="Arial, Helvetica, sans-serif" font-size="14" font-weight="700" fill="#021d3f" text-anchor="middle">Landing page</text>
</svg>