<svg  viewBox="0 0 572 759" fill="none" xmlns="http://www.w3.org/2000/svg">
<path d="M333.493 487.046L473.586 722.997C473.586 722.997 294.952 761.462 244.551 693.857C214.626 652.062 237.226 595.53 272.935 548.947C302.985 505.321 314.514 498.993 333.493 487.004V487.046Z" stroke="white" strokeWidth="25" strokeMiterlimit="10"/>
<path d="M472.462 258.005C437.168 270.327 388.265 278.236 360.629 243.143C338.196 209.716 351.764 174.123 399.627 135.533L339.819 35L102.585 180.7C102.585 180.7 -13.9513 272.283 40.1548 376.355C94.2608 480.427 214.959 651.104 214.959 651.104C214.959 651.104 252.417 588.661 298.199 517.893C339.819 455.45 535.433 363.866 535.433 363.866L472.462 258.005Z" stroke="white" strokeWidth="25" strokeMiterlimit="10"/>
</svg>
