<svg width="110" height="110" viewBox="0 0 110 110" fill="none" xmlns="http://www.w3.org/2000/svg">
<g clip-path="url(#clip0_2017_219)">
<path d="M102.667 0H7.33333C3.28325 0 0 3.28325 0 7.33333V102.667C0 106.717 3.28325 110 7.33333 110H102.667C106.717 110 110 106.717 110 102.667V7.33333C110 3.28325 106.717 0 102.667 0Z" fill="white"/>
<path d="M10.3887 55.2785C10.3887 48.8889 11.959 44.1418 15.0997 41.0373C17.1212 39.0157 19.3774 37.68 21.8683 37.0302C24.3592 36.3804 27.6262 36.0555 31.6693 36.0555C35.4236 36.0555 38.4379 36.3263 40.7121 36.8678C43.0225 37.3732 44.9177 38.4742 46.3978 40.1709C47.6252 41.5788 48.5818 43.2935 49.2677 45.315C49.7838 46.7342 50.143 48.1348 50.3456 49.517C50.4759 50.4061 49.7566 51.1631 48.8579 51.1631C48.0477 51.1631 47.3789 50.5427 47.238 49.7448C47.0314 48.5753 46.6972 47.3874 46.2354 46.1814C45.6217 44.4487 44.647 42.9686 43.3113 41.7412C41.9757 40.4777 40.279 39.846 38.2213 39.846C36.308 39.846 34.7196 40.6943 33.4562 42.391C32.3732 43.871 31.597 45.8385 31.1278 48.2932C30.6946 50.4592 30.478 52.7876 30.478 55.2785C30.478 59.3577 30.9834 62.769 31.9941 65.5129C32.1679 65.9682 32.3543 66.3942 32.5531 66.7908C34.3693 70.4104 38.2213 67.4819 38.2213 63.4315V63.099C38.2213 59.049 41.5046 55.7658 45.5546 55.7658H47.4576C51.5077 55.7658 54.7909 59.049 54.7909 63.099V66.9515C54.7909 71.0013 51.508 74.283 47.4581 74.3276C44.2301 74.363 40.7902 74.4211 37.1384 74.5012L31.6693 74.5555C27.6983 74.5555 24.4675 74.1767 21.9766 73.4183C19.5218 72.6244 17.41 71.3429 15.6411 69.5738C12.1395 66.0721 10.3887 61.3073 10.3887 55.2785Z" fill="#17375F"/>
<path d="M86.4131 49.9719C90.7093 51.127 93.9219 52.6613 96.0516 54.5745C98.1813 56.4517 99.2465 58.9065 99.2465 61.9385C99.2465 64.3573 98.4881 66.5237 96.9719 68.4365C95.4558 70.3499 93.2179 71.8483 90.2576 72.9312C87.3335 74.0141 83.778 74.5555 79.5901 74.5555C74.645 74.5555 70.2768 73.9237 66.486 72.6605C63.3486 71.5739 60.7779 70.2985 58.7748 68.8343C58.1255 68.3595 58.0265 67.4495 58.5021 66.8012C59.0184 66.0972 60.0138 65.9652 60.7415 66.4479C62.3763 67.532 64.3093 68.4842 66.5404 69.303C69.3925 70.3499 72.4609 70.8736 75.7456 70.8736C77.8759 70.8736 79.4819 70.5668 80.5648 69.9527C81.6844 69.3391 82.2435 68.4725 82.2435 67.3536C82.2435 65.4042 80.3124 63.888 76.4496 62.8051L69.4102 60.7475C65.584 59.5924 62.6238 57.9859 60.5299 55.9283C58.4722 53.8706 57.4434 51.4339 57.4434 48.6182C57.4434 46.2717 58.1834 44.1418 59.6635 42.2286C61.1437 40.3153 63.2918 38.8172 66.1071 37.7341C68.9592 36.6151 72.3704 36.0555 76.3414 36.0555C80.1321 36.0555 83.6155 36.4888 86.792 37.3551C89.2792 38.0258 91.4096 38.8046 93.1824 39.6916C93.9872 40.0943 94.1956 41.1202 93.6713 41.8516C93.2087 42.4962 92.3354 42.6813 91.6229 42.3327C90.1971 41.6351 88.5691 41.0228 86.7383 40.4958C84.3916 39.8099 81.919 39.4669 79.3194 39.4669C77.0454 39.4669 75.2946 39.8279 74.0669 40.5499C72.8758 41.2358 72.28 42.1924 72.28 43.4198C72.28 44.3584 72.7316 45.1887 73.6342 45.9107C74.5362 46.5965 76.251 47.2824 78.7779 47.9684L86.4131 49.9719Z" fill="#17375F"/>
</g>
<defs>
<clipPath id="clip0_2017_219">
<rect width="110" height="110" fill="white"/>
</clipPath>
</defs>
</svg>
