<svg viewBox="0 0 308 282" fill="none" xmlns="http://www.w3.org/2000/svg">
<mask id="mask0_1758_1482" style="mask-type:luminance" maskUnits="userSpaceOnUse" x="33" y="56" width="74" height="65">
<path d="M53.0225 113.439L60.6505 102.203V73.5177H71.4303V86.3072L91.3512 56.9426L106.716 79.8439L100.281 90.7893L91.3398 77.5144L62.2435 120.531H33.9352L53.0225 113.439Z" fill="white"/>
</mask>
<g mask="url(#mask0_1758_1482)">
<path d="M106.716 56.9427H33.9355V120.531H106.716V56.9427Z" fill="white"/>
</g>
<mask id="mask1_1758_1482" style="mask-type:luminance" maskUnits="userSpaceOnUse" x="63" y="79" width="37" height="42">
<path d="M91.3333 86.8955L68.529 120.531H63.4018L91.3504 79.3074L99.7093 91.7601L97.3284 95.8139L91.3333 86.8955Z" fill="white"/>
</mask>
<g mask="url(#mask1_1758_1482)">
<path d="M99.7094 79.3075H63.4019V120.525H99.7094V79.3075Z" fill="white"/>
</g>
<mask id="mask2_1758_1482" style="mask-type:luminance" maskUnits="userSpaceOnUse" x="59" y="66" width="14" height="8">
<path d="M72.5553 66.7747H59.5203V73.3293H72.5553V66.7747Z" fill="white"/>
</mask>
<g mask="url(#mask2_1758_1482)">
<path d="M72.5551 66.7746H59.5201V73.3292H72.5551V66.7746Z" fill="white"/>
</g>
<mask id="mask3_1758_1482" style="mask-type:luminance" maskUnits="userSpaceOnUse" x="204" y="56" width="75" height="65">
<path d="M259.037 113.439L278.124 120.531H249.816L220.719 77.5144L211.236 91.5944L204.807 80.6433L220.708 56.9426L240.629 86.3072V73.5177H251.409V102.203L259.037 113.439Z" fill="white"/>
</mask>
<g mask="url(#mask3_1758_1482)">
<path d="M278.118 56.9426H204.807V120.531H278.118V56.9426Z" fill="white"/>
</g>
<mask id="mask4_1758_1482" style="mask-type:luminance" maskUnits="userSpaceOnUse" x="211" y="79" width="38" height="42">
<path d="M220.726 86.8956L214.188 96.6248L211.807 92.5652L220.709 79.3075L248.657 120.531H243.53L220.726 86.8956Z" fill="white"/>
</mask>
<g mask="url(#mask4_1758_1482)">
<path d="M248.657 79.3075H211.807V120.525H248.657V79.3075Z" fill="white"/>
</g>
<mask id="mask5_1758_1482" style="mask-type:luminance" maskUnits="userSpaceOnUse" x="239" y="66" width="14" height="8">
<path d="M252.539 66.7747H239.504V73.3294H252.539V66.7747Z" fill="white"/>
</mask>
<g mask="url(#mask5_1758_1482)">
<path d="M252.539 66.7747H239.504V73.3293H252.539V66.7747Z" fill="white"/>
</g>
<mask id="mask6_1758_1482" style="mask-type:luminance" maskUnits="userSpaceOnUse" x="40" y="58" width="66" height="62">
<path d="M53.7588 114.376L40.2441 119.394H54.4611H61.6381L91.3453 75.4874L100.218 88.6653L105.38 79.8838L91.3453 58.9695L70.2996 89.9956V74.6481H61.7809V102.551L53.7588 114.376Z" fill="white"/>
</mask>
<g mask="url(#mask6_1758_1482)">
<path d="M105.38 58.9695H40.2446V119.394H105.38V58.9695Z" fill="white"/>
</g>
<mask id="mask7_1758_1482" style="mask-type:luminance" maskUnits="userSpaceOnUse" x="65" y="81" width="34" height="39">
<path d="M65.5433 119.395L91.3451 81.3342L98.3736 91.7999L97.2603 93.6898L91.3394 84.8684L67.9299 119.395H65.5433Z" fill="white"/>
</mask>
<g mask="url(#mask7_1758_1482)">
<path d="M98.3737 81.3342H65.5433V119.395H98.3737V81.3342Z" fill="white"/>
</g>
<mask id="mask8_1758_1482" style="mask-type:luminance" maskUnits="userSpaceOnUse" x="206" y="58" width="66" height="62">
<path d="M258.299 114.376L271.814 119.395H257.597H250.42L220.713 75.4875L211.298 89.4704L206.142 80.6833L220.713 58.9695L241.759 89.9957V74.6482H250.277V102.551L258.299 114.376Z" fill="white"/>
</mask>
<g mask="url(#mask8_1758_1482)">
<path d="M271.814 58.9695H206.142V119.395H271.814V58.9695Z" fill="white"/>
</g>
<mask id="mask9_1758_1482" style="mask-type:luminance" maskUnits="userSpaceOnUse" x="213" y="81" width="34" height="39">
<path d="M246.515 119.395L220.714 81.3344L213.143 92.6109L214.25 94.5008L220.719 84.8687L244.129 119.395H246.515Z" fill="white"/>
</mask>
<g mask="url(#mask9_1758_1482)">
<path d="M246.515 81.3344H213.142V119.395H246.515V81.3344Z" fill="white"/>
</g>
<mask id="mask10_1758_1482" style="mask-type:luminance" maskUnits="userSpaceOnUse" x="46" y="61" width="220" height="58">
<path d="M46.8386 118.213H61.0099L91.3451 73.3692L100.149 86.4442L103.981 79.9295L91.3394 61.0935L69.1118 93.8553V75.8357H62.9683V102.911L54.5294 115.352L46.8386 118.213ZM61.8378 69.0927V71.0054H70.2366V69.0927H61.8378ZM249.091 75.8357H242.947V93.8553L220.72 61.0878L207.542 80.7289L211.367 87.2493L220.708 73.3749L251.043 118.218H265.215L257.529 115.363L249.091 102.922V75.8357ZM250.221 69.0927H241.822V71.0054H250.221V69.0927Z" fill="white"/>
</mask>
<g mask="url(#mask10_1758_1482)">
<path d="M265.215 61.0878H46.839V118.213H265.215V61.0878Z" fill="white"/>
</g>
<mask id="mask11_1758_1482" style="mask-type:luminance" maskUnits="userSpaceOnUse" x="86" y="0" width="139" height="121">
<path d="M145.233 50.959H166.41L155.607 31.4606L145.233 50.959ZM183.921 68.8815L156.03 20.5209L128.138 68.8815H132.66L127.065 78.5707H110.838L156.03 0.211792L200.936 78.5707H144.925L150.52 68.8815H151.177C162.088 68.8815 173.004 68.8815 183.921 68.8815ZM111.792 97.2241L103.941 110.842H111.609L117.593 100.467C124.376 88.6996 131.164 76.9378 137.959 65.1759L137.953 65.1702L143.126 56.1947H168.934L174.518 65.8839H149.075L136.588 87.5406H172.302L177.898 97.2298H131.004L117.564 120.531H86.6464L105.671 87.5406H121.903L116.314 97.2298H111.792V97.2241ZM200.451 110.842H208.119L200.268 97.2241H195.832L190.242 87.5348H205.755L213.868 101.118L224.991 120.525H194.501L171.88 81.2999H183.413L200.451 110.842Z" fill="white"/>
</mask>
<g mask="url(#mask11_1758_1482)">
<path d="M224.99 0.205811H86.6402V120.53H224.99V0.205811Z" fill="white"/>
</g>
<mask id="mask12_1758_1482" style="mask-type:luminance" maskUnits="userSpaceOnUse" x="88" y="2" width="136" height="118">
<path d="M198.982 77.4344H146.887L151.17 70.0119C162.737 70.0119 174.305 70.0119 185.879 70.0119L164.85 33.5445L156.029 18.2542L126.179 70.0119H130.701L126.418 77.4344H121.902H112.807L156.034 2.47845L198.982 77.4344ZM88.5979 119.394L106.315 88.671H115.41H119.932L117.768 92.4165L115.644 96.0935H111.128L101.97 111.978H112.259L118.568 101.038C129.245 82.5503 131.003 79.4785 139.505 64.7534L139.499 64.7476L143.776 57.3365H145.574H152.7H159.363H166.671H168.281L172.564 64.7591H166.677H163.645H148.423L134.629 88.6767H171.65L175.932 96.0992H130.347L116.906 119.4H116.016H107.988H97.699H96.4258H88.5979V119.394ZM192.199 88.671H196.635H205.109L212.879 101.683L215.9 106.953L223.025 119.394H217.978H214.358H204.069H198.388H195.151L173.837 82.4361H182.755L199.793 111.978H210.082L200.923 96.0935H196.487L192.199 88.671Z" fill="white"/>
</mask>
<g mask="url(#mask12_1758_1482)">
<path d="M223.031 2.47864H88.5983V119.395H223.031V2.47864Z" fill="white"/>
</g>
<mask id="mask13_1758_1482" style="mask-type:luminance" maskUnits="userSpaceOnUse" x="175" y="83" width="46" height="36">
<path d="M194.255 89.8587L197.172 94.906H201.603L212.131 113.16H199.108L182.07 83.6181H175.887L195.836 118.213H220.987L211.863 102.294L204.441 89.8587H194.255Z" fill="white"/>
</mask>
<g mask="url(#mask13_1758_1482)">
<path d="M220.982 83.6181H175.887V118.207H220.982V83.6181Z" fill="white"/>
</g>
<mask id="mask14_1758_1482" style="mask-type:luminance" maskUnits="userSpaceOnUse" x="90" y="37" width="84" height="82">
<path d="M149.886 48.6753H161.762L155.705 37.9241L149.886 48.6753ZM90.6548 118.213H116.222L129.663 94.9119H173.878L170.961 89.8646H132.575L147.74 63.5717H170.515L167.603 58.5244H144.474L141.139 64.3026L141.145 64.3083L140.546 65.3474C133.563 77.4404 126.585 89.5391 119.608 101.632L112.957 113.166H99.9329L110.461 94.9119H114.978L117.895 89.8646H107.013L90.6548 118.213Z" fill="white"/>
</mask>
<g mask="url(#mask14_1758_1482)">
<path d="M173.879 37.9241H90.6553V118.213H173.879V37.9241Z" fill="white"/>
</g>
<mask id="mask15_1758_1482" style="mask-type:luminance" maskUnits="userSpaceOnUse" x="114" y="4" width="83" height="73">
<path d="M196.938 76.2469L156.023 4.85376L114.851 76.2469H125.728L128.645 71.1939H124.123L156.023 15.879L187.929 71.1939H185.879C174.539 71.1939 163.2 71.1939 151.855 71.1939L148.937 76.2469H196.938Z" fill="white"/>
</mask>
<g mask="url(#mask15_1758_1482)">
<path d="M196.938 4.8595H114.851V76.2527H196.938V4.8595Z" fill="white"/>
</g>
<mask id="mask16_1758_1482" style="mask-type:luminance" maskUnits="userSpaceOnUse" x="23" y="261" width="271" height="21">
<path d="M290.205 278.179H284.142L283.011 281.479H280.739L286.283 266.452H288.076L293.62 281.479H291.347L290.205 278.179ZM276.902 281.479H274.795V266.452H276.902V281.479ZM261.543 266.44H265.397C266.265 266.44 267.024 266.617 267.686 266.983C268.343 267.337 268.857 267.845 269.217 268.507C269.582 269.164 269.759 269.923 269.759 270.785C269.759 271.647 269.576 272.407 269.211 273.063C268.845 273.72 268.332 274.228 267.675 274.588C267.435 274.719 267.184 274.822 266.921 274.902L270.387 281.479H267.886L264.677 275.125H261.537V281.479H259.43V266.44H260.35H261.543ZM261.543 273.121H265.477C265.876 273.121 266.23 273.023 266.544 272.829C266.853 272.635 267.093 272.361 267.264 272.007C267.429 271.653 267.515 271.248 267.515 270.785C267.515 270.323 267.429 269.912 267.264 269.563C267.093 269.209 266.853 268.93 266.55 268.741C266.248 268.547 265.888 268.45 265.482 268.45H261.549V273.121H261.543ZM248.188 264.202L251.043 261.667L252.402 263.083L249.353 265.418L248.188 264.202ZM251.5 276.175L249.153 269.352L246.812 276.175H251.5ZM248.262 266.452H250.055L255.599 281.479H253.327L252.196 278.179H246.133L245.002 281.479H242.73L248.262 266.452ZM238.887 281.479H236.78V266.452H238.887V281.479ZM223.083 266.452H225.19V279.475H232.732V281.479H225.19H224.133H223.077V266.452H223.083ZM217.801 281.479H215.695V266.452H217.801V281.479ZM202.568 266.452H206.394C207.364 266.452 208.181 266.617 208.832 266.948C209.488 267.28 209.979 267.748 210.305 268.353C210.624 268.958 210.79 269.683 210.79 270.528C210.79 271.042 210.693 271.528 210.487 271.979C210.288 272.43 209.985 272.812 209.574 273.138C209.163 273.457 208.655 273.674 208.049 273.783C208.655 273.874 209.18 274.091 209.62 274.428C210.059 274.771 210.402 275.199 210.63 275.707C210.864 276.221 210.984 276.769 210.984 277.363V277.397C210.984 278.208 210.801 278.921 210.442 279.544C210.088 280.166 209.568 280.646 208.906 280.977C208.238 281.314 207.461 281.485 206.571 281.485H202.568H201.712H200.473V266.457H201.712H202.568V266.452ZM202.568 272.818H206.302C207.079 272.818 207.667 272.635 208.061 272.27C208.46 271.904 208.655 271.362 208.655 270.648C208.655 269.895 208.432 269.335 207.992 268.964C207.553 268.593 206.89 268.404 206.011 268.404H202.568V272.818ZM202.568 279.527H205.783C206.85 279.527 207.633 279.327 208.118 278.916C208.609 278.51 208.854 277.939 208.854 277.203V277.169C208.854 276.66 208.769 276.221 208.592 275.855C208.415 275.49 208.135 275.21 207.758 275.01C207.376 274.816 206.896 274.719 206.302 274.719H202.568V279.527ZM190.212 281.634C189.168 281.634 188.243 281.405 187.438 280.943C186.638 280.486 186.022 279.841 185.588 279.001C185.148 278.168 184.931 277.197 184.931 276.095V271.836C184.931 270.734 185.148 269.763 185.588 268.924C186.027 268.09 186.644 267.439 187.438 266.983C188.237 266.526 189.162 266.298 190.212 266.298C191.257 266.298 192.182 266.526 192.982 266.983C193.781 267.439 194.398 268.09 194.837 268.924C195.277 269.758 195.494 270.728 195.494 271.836V276.095C195.494 277.197 195.277 278.168 194.837 279.001C194.398 279.841 193.781 280.486 192.982 280.943C192.182 281.405 191.257 281.634 190.212 281.634ZM190.212 279.555C190.829 279.555 191.377 279.413 191.851 279.133C192.325 278.853 192.685 278.459 192.942 277.945C193.204 277.431 193.33 276.843 193.33 276.164V271.762C193.33 271.088 193.204 270.494 192.942 269.98C192.685 269.466 192.319 269.072 191.851 268.793C191.377 268.513 190.829 268.37 190.212 268.37C189.59 268.37 189.048 268.513 188.574 268.793C188.1 269.072 187.74 269.466 187.478 269.98C187.215 270.494 187.089 271.088 187.089 271.762V276.164C187.089 276.843 187.215 277.431 187.478 277.945C187.734 278.459 188.1 278.853 188.574 279.133C189.048 279.418 189.596 279.555 190.212 279.555ZM177.988 266.452H179.958V281.479H177.903V270.226L178.011 270.888L174.311 279.39H172.844L169.144 271.094L169.247 270.226V281.479H167.191V266.452H169.167L173.58 276.375L177.988 266.452ZM161.904 281.479H159.797V266.452H161.904V281.479ZM284.832 276.175H289.52L287.173 269.352L284.832 276.175ZM148.938 278.179H142.874L141.743 281.479H139.471L145.015 266.452H146.808L152.352 281.479H150.08L148.938 278.179ZM128.075 266.44H131.929C132.796 266.44 133.556 266.617 134.218 266.983C134.875 267.337 135.383 267.845 135.748 268.507C136.114 269.164 136.291 269.923 136.291 270.785C136.291 271.647 136.108 272.407 135.743 273.063C135.377 273.72 134.863 274.228 134.207 274.588C133.967 274.719 133.716 274.822 133.453 274.902L136.919 281.479H134.418L131.209 275.125H128.069V281.479H125.962V266.44H126.881H128.075ZM128.075 273.121H132.009C132.408 273.121 132.762 273.023 133.076 272.829C133.385 272.635 133.624 272.361 133.796 272.007C133.961 271.653 134.047 271.248 134.047 270.785C134.047 270.323 133.961 269.912 133.796 269.563C133.624 269.209 133.385 268.93 133.082 268.741C132.779 268.547 132.42 268.45 132.014 268.45H128.08V273.121H128.075ZM115.713 281.634C114.663 281.634 113.743 281.405 112.938 280.943C112.139 280.486 111.522 279.841 111.088 279.001C110.649 278.168 110.432 277.197 110.432 276.095V271.836C110.432 270.734 110.649 269.763 111.088 268.924C111.528 268.09 112.145 267.439 112.938 266.983C113.738 266.526 114.663 266.298 115.713 266.298C116.758 266.298 117.683 266.526 118.482 266.983C119.282 267.439 119.898 268.09 120.338 268.924C120.778 269.758 120.995 270.728 120.995 271.836V276.095C120.995 277.197 120.778 278.168 120.338 279.001C119.898 279.841 119.282 280.486 118.482 280.943C117.683 281.405 116.758 281.634 115.713 281.634ZM115.713 279.555C116.33 279.555 116.878 279.413 117.352 279.133C117.826 278.853 118.186 278.459 118.442 277.945C118.705 277.431 118.831 276.843 118.831 276.164V271.762C118.831 271.088 118.705 270.494 118.442 269.98C118.186 269.466 117.82 269.072 117.352 268.793C116.878 268.513 116.33 268.37 115.713 268.37C115.091 268.37 114.549 268.513 114.075 268.793C113.601 269.072 113.241 269.466 112.978 269.98C112.716 270.494 112.59 271.088 112.59 271.762V276.164C112.59 276.843 112.716 277.431 112.978 277.945C113.235 278.459 113.601 278.853 114.075 279.133C114.549 279.418 115.097 279.555 115.713 279.555ZM103.278 268.461V281.479H101.171V268.461H96.9229V266.452H107.526V268.461H103.278ZM84.7728 266.452H85.7948H86.8797H94.4221V268.461H86.8797V273.018H93.2916V275.022H86.8854V279.475H94.4278V281.479H86.8854H85.8005H84.7785V266.452H84.7728ZM71.5265 266.44H75.3805C76.2483 266.44 77.0077 266.617 77.67 266.983C78.3266 267.337 78.8405 267.845 79.2002 268.507C79.5656 269.164 79.7426 269.923 79.7426 270.785C79.7426 271.647 79.5599 272.407 79.1945 273.063C78.8291 273.72 78.3152 274.228 77.6586 274.588C77.4188 274.719 77.1676 274.822 76.9049 274.902L80.3707 281.479H77.8699L74.6611 275.125H71.5208V281.479H69.4139V266.44H70.3332H71.5265ZM71.5265 273.121H75.4604C75.8601 273.121 76.2141 273.023 76.5281 272.829C76.8364 272.635 77.0762 272.361 77.2475 272.007C77.4131 271.653 77.4987 271.248 77.4987 270.785C77.4987 270.323 77.4131 269.912 77.2475 269.563C77.0762 269.209 76.8364 268.93 76.5338 268.741C76.2312 268.547 75.8715 268.45 75.4661 268.45H71.5322V273.121H71.5265ZM56.1676 266.44H60.0216C60.8894 266.44 61.6488 266.617 62.3111 266.983C62.9678 267.337 63.4816 267.845 63.8413 268.507C64.2067 269.164 64.3837 269.923 64.3837 270.785C64.3837 271.647 64.201 272.407 63.8356 273.063C63.4702 273.72 62.9563 274.228 62.2997 274.588C62.0599 274.719 61.8087 274.822 61.546 274.902L65.0118 281.479H62.511L59.3022 275.125H56.1619V281.479H54.055V266.44H54.9743H56.1676ZM56.1676 273.121H60.1015C60.5012 273.121 60.8552 273.023 61.1692 272.829C61.4775 272.635 61.7173 272.361 61.8886 272.007C62.0542 271.653 62.1399 271.248 62.1399 270.785C62.1399 270.323 62.0542 269.912 61.8886 269.563C61.7173 269.209 61.4775 268.93 61.1749 268.741C60.8723 268.547 60.5126 268.45 60.1072 268.45H56.1733V273.121H56.1676ZM43.8062 281.634C42.7614 281.634 41.8364 281.405 41.0314 280.943C40.232 280.486 39.6154 279.841 39.1814 279.001C38.7418 278.168 38.5248 277.197 38.5248 276.095V271.836C38.5248 270.734 38.7418 269.763 39.1814 268.924C39.6211 268.09 40.2377 267.439 41.0314 266.983C41.8307 266.526 42.7557 266.298 43.8062 266.298C44.8511 266.298 45.7761 266.526 46.5754 266.983C47.3748 267.439 47.9914 268.09 48.431 268.924C48.8707 269.758 49.0876 270.728 49.0876 271.836V276.095C49.0876 277.197 48.8707 278.168 48.431 279.001C47.9914 279.841 47.3748 280.486 46.5754 280.943C45.7761 281.405 44.8511 281.634 43.8062 281.634ZM43.8062 279.555C44.4229 279.555 44.971 279.413 45.4449 279.133C45.9188 278.853 46.2785 278.459 46.5411 277.945C46.8038 277.431 46.9294 276.843 46.9294 276.164V271.762C46.9294 271.088 46.8038 270.494 46.5411 269.98C46.2842 269.466 45.9188 269.072 45.4449 268.793C44.971 268.513 44.4229 268.37 43.8062 268.37C43.1839 268.37 42.6415 268.513 42.1676 268.793C41.6937 269.072 41.334 269.466 41.077 269.98C40.8144 270.494 40.6888 271.088 40.6888 271.762V276.164C40.6888 276.843 40.8144 277.431 41.077 277.945C41.334 278.459 41.6994 278.853 42.1676 279.133C42.6415 279.418 43.1839 279.555 43.8062 279.555ZM29.0982 281.634C28.0591 281.634 27.1455 281.405 26.3519 280.943C25.564 280.48 24.9531 279.824 24.5191 278.979C24.0852 278.134 23.8682 277.146 23.8682 276.032V271.91C23.8682 270.797 24.0852 269.809 24.5191 268.964C24.9531 268.119 25.564 267.462 26.3519 266.994C27.1398 266.526 28.0534 266.298 29.0982 266.298C29.9604 266.298 30.754 266.486 31.4734 266.851C32.1986 267.217 32.7981 267.742 33.2891 268.416C33.7744 269.09 34.1056 269.872 34.2769 270.762H32.1129C31.9816 270.294 31.7646 269.872 31.4563 269.506C31.148 269.135 30.7883 268.855 30.3772 268.65C29.9661 268.45 29.5379 268.353 29.0982 268.353C28.4816 268.353 27.9506 268.501 27.4881 268.798C27.0256 269.095 26.6659 269.512 26.4147 270.043C26.1635 270.58 26.0322 271.202 26.0322 271.91V276.032C26.0322 276.735 26.1578 277.357 26.4147 277.894C26.6659 278.436 27.0256 278.847 27.4881 279.138C27.9506 279.43 28.4873 279.578 29.0982 279.578C29.5436 279.578 29.9718 279.487 30.3829 279.298C30.794 279.11 31.148 278.836 31.4563 278.47C31.7646 278.105 31.9816 277.671 32.1129 277.169H34.2769C34.1056 278.059 33.7744 278.842 33.2834 279.515C32.7981 280.195 32.1872 280.714 31.4677 281.08C30.7426 281.451 29.949 281.634 29.0982 281.634ZM143.559 276.175H148.247L145.9 269.352L143.559 276.175Z" fill="white"/>
</mask>
<g mask="url(#mask16_1758_1482)">
<path d="M293.614 261.667H23.8683V281.634H293.614V261.667Z" fill="white"/>
</g>
<path fill-rule="evenodd" clip-rule="evenodd" d="M19.6378 248.472L32.1133 164.729C32.1476 164.495 32.3474 164.324 32.5815 164.324L63.2993 164.278C63.5334 164.278 63.7275 164.444 63.7675 164.672L78.0987 247.49C78.1272 247.667 78.0644 247.827 77.9274 247.941L76.7797 248.866C76.6941 248.935 76.597 248.969 76.4828 248.969L56.8988 249.015C56.6533 249.015 56.4535 248.838 56.4249 248.592L54.181 228.643C54.1525 228.403 53.9527 228.22 53.7071 228.22H42.0881C41.8368 228.22 41.6256 228.42 41.6142 228.671L40.7691 247.553C40.7634 247.69 40.7063 247.804 40.6035 247.89L39.4274 248.895C39.336 248.969 39.2389 249.009 39.119 249.009H20.106C19.9632 249.009 19.8376 248.952 19.7463 248.843C19.6549 248.746 19.6207 248.615 19.6378 248.472ZM80.6908 164.324H99.4869C99.7496 164.324 99.9608 164.535 99.9608 164.798V228.825C99.9608 231.183 100.309 232.759 100.994 233.559C101.674 234.358 103.078 234.763 105.219 234.763C107.321 234.763 108.725 234.352 109.427 233.559C110.13 232.759 110.478 231.183 110.478 228.825V164.798C110.478 164.535 110.689 164.324 110.952 164.324H128.926C129.188 164.324 129.4 164.535 129.4 164.798V221.7C129.4 228.317 129.051 233.165 128.366 236.225C127.687 239.28 126.556 241.889 124.958 244.013C123.245 246.234 120.909 247.793 117.969 248.706C115.029 249.62 110.609 250.071 104.728 250.071C98.7104 250.071 94.274 249.625 91.3907 248.706C88.4902 247.793 86.212 246.234 84.5391 244.013C82.9804 241.969 81.8727 239.439 81.2104 236.419C80.5481 233.422 80.2169 228.517 80.2169 221.7V164.798C80.2169 164.541 80.4282 164.324 80.6908 164.324ZM165.936 227.621C165.936 224.703 165.393 222.693 164.32 221.585C163.229 220.478 161.185 219.93 158.228 219.93H155.43C155.167 219.93 154.956 220.141 154.956 220.404V248.541C154.956 248.803 154.745 249.015 154.482 249.015H135.686C135.423 249.015 135.212 248.803 135.212 248.541V164.798C135.212 164.535 135.423 164.324 135.686 164.324H155.75C167.94 164.324 175.979 165.86 179.913 168.937C183.824 172.032 185.794 177.736 185.794 186.049V195.744C185.794 200.648 184.72 204.388 182.602 206.957C180.809 209.093 178.091 210.652 174.42 211.622C174.209 211.679 174.066 211.868 174.066 212.085C174.072 212.307 174.22 212.49 174.431 212.541C177.783 213.324 180.352 214.705 182.111 216.675C184.252 219.068 185.343 222.459 185.343 226.821V248.541C185.343 248.803 185.131 249.015 184.869 249.015H166.404C166.141 249.015 165.93 248.803 165.93 248.541V227.621H165.936ZM159.763 179.277H155.43C155.167 179.277 154.956 179.488 154.956 179.751V204.97C154.956 205.233 155.167 205.444 155.43 205.444H159.763C162.316 205.444 164.029 205.016 164.885 204.16C165.741 203.303 166.17 201.727 166.17 199.409V185.369C166.17 183.011 165.741 181.418 164.885 180.562C164.023 179.705 162.31 179.277 159.763 179.277ZM241.154 226.279C241.154 232.103 240.823 236.248 240.178 238.737C239.533 241.232 238.408 243.333 236.809 245.046C235.096 246.913 232.955 248.221 230.363 248.957C227.794 249.7 222.906 250.065 215.701 250.065C208.478 250.065 203.573 249.694 201.004 248.957C198.412 248.215 196.254 246.913 194.541 245.046C192.942 243.293 191.817 241.135 191.132 238.566C190.453 235.997 190.099 231.908 190.099 226.279V187.128C190.099 181.504 190.43 177.41 191.092 174.864C191.754 172.311 192.925 170.17 194.541 168.417C196.294 166.51 198.612 165.186 201.472 164.426C204.356 163.667 209.106 163.279 215.706 163.279C222.29 163.279 227 163.667 229.821 164.426C232.664 165.186 234.959 166.51 236.712 168.417C238.328 170.17 239.498 172.311 240.161 174.864C240.823 177.416 241.154 181.504 241.154 187.128V226.279ZM220.948 229.059V184.399C220.948 182.041 220.6 180.465 219.897 179.665C219.195 178.866 217.813 178.461 215.729 178.461C213.605 178.461 212.184 178.872 211.487 179.665C210.785 180.465 210.436 182.041 210.436 184.399V229.059C210.436 231.452 210.785 233.05 211.487 233.827C212.189 234.603 213.611 234.997 215.729 234.997C217.813 234.997 219.195 234.609 219.897 233.827C220.594 233.05 220.948 231.457 220.948 229.059ZM263.033 221.22V228.962C263.033 231.161 263.479 232.719 264.358 233.633C265.232 234.546 266.716 234.997 268.817 234.997C271.095 234.997 272.631 234.569 273.431 233.696C274.23 232.816 274.635 231.166 274.635 228.728V222.733C274.635 220.923 274.521 219.564 274.287 218.691C274.287 218.685 274.287 218.685 274.287 218.679C274.076 217.806 273.688 217.035 273.168 216.355C273.162 216.35 273.157 216.344 273.157 216.338C271.849 214.785 268.874 213.484 264.21 212.473C262.069 212.005 260.418 211.616 259.248 211.268H259.242C253.755 209.709 249.998 207.528 247.932 204.725C245.887 201.922 244.854 197.519 244.854 191.507V183.679C244.854 176.085 246.333 170.793 249.273 167.772C252.214 164.775 257.312 163.273 264.575 163.273H270.416C274.972 163.273 278.712 163.661 281.653 164.444C284.57 165.22 286.865 166.47 288.544 168.178L288.55 168.183C289.892 169.508 290.805 171.198 291.353 173.259C291.878 175.303 292.153 178.592 292.153 183.108V189.195C292.153 189.457 291.941 189.669 291.679 189.669H275.126C274.864 189.669 274.653 189.457 274.653 189.195V184.37C274.653 181.704 274.304 179.934 273.602 179.054C272.883 178.181 271.461 177.753 269.28 177.753C267.179 177.753 265.757 178.164 265.015 178.98C264.272 179.797 263.907 181.316 263.907 183.577V189.046C263.907 193.192 267.447 196.149 274.533 197.942H274.538C276.542 198.484 278.135 198.913 279.323 199.267C284.753 200.785 288.493 202.926 290.52 205.65C292.564 208.396 293.574 212.736 293.574 218.674V230.081C293.574 237.167 291.901 242.249 288.533 245.383C285.164 248.501 279.671 250.054 272.083 250.054H266.825C258.454 250.054 252.71 248.632 249.576 245.771C246.441 242.928 244.865 237.652 244.865 229.962V221.209C244.865 220.946 245.077 220.735 245.339 220.735H262.577C262.816 220.746 263.033 220.963 263.033 221.22ZM43.9437 214.089H51.8401C51.9771 214.089 52.097 214.037 52.1941 213.929C52.2854 213.826 52.3254 213.701 52.314 213.563L48.637 179.58C48.6084 179.34 48.4086 179.157 48.1631 179.157H47.8833C47.6435 179.157 47.438 179.334 47.4094 179.574L43.4698 213.558C43.4527 213.695 43.4926 213.82 43.5897 213.929C43.681 214.037 43.8009 214.089 43.9437 214.089Z" fill="white"/>
<mask id="mask17_1758_1482" style="mask-type:luminance" maskUnits="userSpaceOnUse" x="21" y="162" width="275" height="87">
<path d="M21.105 247.222L33.5805 163.479C33.6148 163.245 33.8146 163.073 34.0487 163.073H64.795C65.0291 163.073 65.229 163.245 65.2632 163.479L78.0642 247.222C78.0871 247.364 78.0471 247.496 77.9557 247.604C77.8644 247.713 77.7388 247.77 77.596 247.77H58.3603C58.1148 247.77 57.9149 247.587 57.8864 247.347L55.6425 227.398C55.614 227.158 55.4141 226.975 55.1686 226.975H43.5153C43.2698 226.975 43.0699 227.158 43.0414 227.398L40.7975 247.347C40.7689 247.587 40.5691 247.77 40.3236 247.77H21.556C21.4133 247.77 21.2877 247.713 21.1963 247.604C21.1221 247.49 21.0821 247.359 21.105 247.222ZM82.1523 163.073H100.948C101.211 163.073 101.422 163.285 101.422 163.547V227.575C101.422 229.933 101.771 231.509 102.456 232.308C103.135 233.108 104.54 233.513 106.681 233.513C108.782 233.513 110.187 233.102 110.889 232.308C111.591 231.509 111.939 229.933 111.939 227.575V163.547C111.939 163.285 112.151 163.073 112.413 163.073H130.387C130.65 163.073 130.861 163.285 130.861 163.547V220.449C130.861 227.067 130.513 231.914 129.828 234.975C129.148 238.029 128.018 240.639 126.419 242.763C124.706 244.984 122.371 246.537 119.43 247.456C116.49 248.369 112.071 248.82 106.19 248.82C100.172 248.82 95.7355 248.375 92.8521 247.456C89.9517 246.542 87.6735 244.984 86.0006 242.763C84.4419 240.718 83.3342 238.189 82.6719 235.169C82.0096 232.171 81.6784 227.267 81.6784 220.449V163.547C81.6784 163.285 81.8954 163.073 82.1523 163.073ZM167.397 226.364C167.397 223.441 166.855 221.437 165.781 220.329C164.691 219.222 162.647 218.674 159.689 218.674H156.891C156.629 218.674 156.417 218.885 156.417 219.148V247.285C156.417 247.547 156.206 247.758 155.944 247.758H137.153C136.891 247.758 136.679 247.547 136.679 247.285V163.547C136.679 163.285 136.891 163.073 137.153 163.073H157.217C169.407 163.073 177.446 164.609 181.38 167.687C185.291 170.781 187.261 176.485 187.261 184.798V194.493C187.261 199.398 186.187 203.138 184.069 205.707C182.276 207.842 179.559 209.401 175.887 210.372C175.676 210.429 175.533 210.617 175.533 210.834C175.539 211.057 175.687 211.24 175.899 211.291C179.25 212.073 181.82 213.455 183.578 215.425C185.719 217.823 186.81 221.209 186.81 225.571V247.29C186.81 247.553 186.599 247.764 186.336 247.764H167.871C167.608 247.764 167.397 247.553 167.397 247.29V226.364ZM161.225 178.021H156.891C156.629 178.021 156.417 178.232 156.417 178.495V203.714C156.417 203.977 156.629 204.188 156.891 204.188H161.225C163.777 204.188 165.49 203.76 166.346 202.904C167.203 202.047 167.631 200.471 167.631 198.153V184.113C167.631 181.755 167.203 180.162 166.346 179.306C165.49 178.449 163.777 178.021 161.225 178.021ZM242.621 225.023C242.621 230.847 242.29 234.992 241.645 237.481C241 239.976 239.875 242.077 238.276 243.79C236.563 245.657 234.422 246.965 231.83 247.701C229.261 248.444 224.373 248.809 217.168 248.809C209.945 248.809 205.041 248.438 202.466 247.701C199.873 246.959 197.715 245.657 196.002 243.79C194.404 242.037 193.279 239.879 192.594 237.31C191.914 234.741 191.56 230.652 191.56 225.023V185.872C191.56 180.248 191.891 176.154 192.554 173.608C193.216 171.055 194.386 168.914 196.002 167.161C197.755 165.254 200.073 163.93 202.934 163.17C205.817 162.411 210.568 162.023 217.168 162.023C223.751 162.023 228.461 162.411 231.282 163.17C234.125 163.93 236.421 165.254 238.174 167.161C239.789 168.914 240.96 171.055 241.622 173.608C242.284 176.16 242.616 180.248 242.616 185.872V225.023H242.621ZM222.409 227.809V183.148C222.409 180.79 222.061 179.214 221.359 178.415C220.656 177.616 219.275 177.21 217.191 177.21C215.067 177.21 213.645 177.621 212.948 178.415C212.246 179.214 211.898 180.79 211.898 183.148V227.809C211.898 230.201 212.246 231.8 212.948 232.577C213.651 233.353 215.072 233.747 217.191 233.747C219.275 233.747 220.656 233.359 221.359 232.577C222.061 231.8 222.409 230.201 222.409 227.809ZM264.495 219.97V227.712C264.495 229.91 264.94 231.469 265.82 232.382C266.693 233.296 268.178 233.747 270.279 233.747C272.557 233.747 274.093 233.319 274.892 232.445C275.692 231.566 276.097 229.916 276.097 227.478V221.483C276.097 219.679 275.983 218.314 275.749 217.44C275.749 217.435 275.749 217.435 275.749 217.429C275.537 216.555 275.149 215.785 274.63 215.105C274.624 215.099 274.624 215.094 274.618 215.088C273.311 213.535 270.336 212.233 265.671 211.223C263.53 210.754 261.88 210.366 260.709 210.018H260.704C255.217 208.459 251.46 206.278 249.393 203.475C247.349 200.671 246.316 196.269 246.316 190.257V182.429C246.316 174.835 247.794 169.542 250.735 166.522C253.675 163.524 258.774 162.023 266.037 162.023H271.878C276.434 162.023 280.174 162.411 283.114 163.193C286.032 163.97 288.327 165.22 290.006 166.927L290.011 166.933C291.353 168.258 292.267 169.948 292.815 172.009C293.34 174.053 293.614 177.342 293.614 181.858V187.944C293.614 188.207 293.403 188.418 293.14 188.418H276.571C276.308 188.418 276.097 188.207 276.097 187.944V183.125C276.097 180.459 275.749 178.689 275.046 177.81C274.327 176.936 272.905 176.508 270.724 176.508C268.623 176.508 267.201 176.919 266.459 177.736C265.717 178.552 265.351 180.071 265.351 182.332V187.802C265.351 191.947 268.891 194.904 275.977 196.697C275.983 196.697 275.983 196.697 275.983 196.697C277.987 197.24 279.58 197.668 280.767 198.022C286.197 199.541 289.937 201.682 291.964 204.405C294.008 207.152 295.019 211.491 295.019 217.429V228.837C295.019 235.922 293.346 241.004 289.977 244.139C286.608 247.256 281.121 248.809 273.528 248.809H268.269C259.899 248.809 254.155 247.387 251.02 244.527C247.886 241.683 246.31 236.408 246.31 228.717V219.964C246.31 219.701 246.521 219.49 246.784 219.49H264.021C264.284 219.496 264.495 219.707 264.495 219.97ZM45.4052 212.833H53.3016C53.4386 212.833 53.5585 212.781 53.6556 212.673C53.7469 212.57 53.7869 212.444 53.7755 212.307L50.0985 178.324C50.0699 178.084 49.8701 177.901 49.6246 177.901H49.3448C49.105 177.901 48.8994 178.078 48.8709 178.318L44.9313 212.302C44.9141 212.439 44.9541 212.564 45.0454 212.673C45.1425 212.781 45.2624 212.833 45.4052 212.833Z" fill="white"/>
</mask>
<g mask="url(#mask17_1758_1482)">
<path d="M295.025 162.017H21.0825V248.815H295.025V162.017Z" fill="white"/>
</g>
<mask id="mask18_1758_1482" style="mask-type:luminance" maskUnits="userSpaceOnUse" x="23" y="164" width="270" height="83">
<path d="M42.3616 213.883L46.6895 176.582C46.758 175.983 47.2604 175.532 47.8657 175.532H51.1144C51.7254 175.532 52.2278 175.983 52.2906 176.588L56.3273 213.889C56.3673 214.237 56.2645 214.551 56.0304 214.808C55.7963 215.065 55.4994 215.202 55.1454 215.202H43.5378C43.1895 215.202 42.8869 215.065 42.6528 214.802C42.4244 214.545 42.3216 214.231 42.3616 213.883ZM25.147 245.395H37.5826C38.1878 245.395 38.6903 244.944 38.7588 244.344L40.8599 225.656C40.9285 225.051 41.4309 224.606 42.0361 224.606H56.6528C57.258 224.606 57.7604 225.057 57.829 225.656L59.9301 244.344C59.9986 244.949 60.5011 245.395 61.1063 245.395H73.9929C74.3526 245.395 74.6609 245.252 74.8893 244.983C75.1234 244.709 75.2148 244.384 75.1634 244.03L63.3159 166.448C63.2246 165.865 62.7335 165.443 62.1454 165.443H36.7033C36.1095 165.443 35.6185 165.871 35.5329 166.453L23.9766 244.03C23.9252 244.384 24.0165 244.709 24.2506 244.978C24.4847 245.252 24.7873 245.395 25.147 245.395ZM84.0533 166.625V220.443C84.0533 223.315 84.1047 226.205 84.2988 229.076C84.4244 230.909 84.5957 232.856 84.9954 234.655C85.5206 237.041 86.4113 239.365 87.8959 241.324C89.3518 243.248 91.2817 244.464 93.5769 245.189C97.2025 246.337 102.415 246.439 106.201 246.439C110.004 246.439 115.085 246.32 118.734 245.183C121.046 244.464 123.061 243.259 124.54 241.318C126.065 239.314 126.973 236.893 127.521 234.449C127.92 232.645 128.109 230.709 128.24 228.871C128.44 226.073 128.497 223.247 128.497 220.443V166.625C128.497 165.974 127.966 165.437 127.309 165.437H115.496C114.845 165.437 114.309 165.968 114.309 166.625V227.575C114.309 229.636 114.092 232.251 112.67 233.873C111.208 235.54 108.782 235.888 106.681 235.888C104.574 235.888 102.107 235.551 100.651 233.85C99.2637 232.228 99.0525 229.625 99.0525 227.581V166.625C99.0525 165.974 98.5215 165.437 97.8649 165.437H85.2352C84.5843 165.443 84.0533 165.974 84.0533 166.625ZM168.019 204.582C166.323 206.278 163.497 206.563 161.225 206.563H155.229C154.579 206.563 154.042 206.032 154.042 205.376V176.839C154.042 176.188 154.573 175.651 155.229 175.651H161.225C163.497 175.651 166.329 175.937 168.019 177.633C169.669 179.283 170 181.892 170 184.119V198.159C170 200.368 169.663 202.938 168.019 204.582ZM139.043 166.625V244.207C139.043 244.858 139.574 245.395 140.23 245.395H152.86C153.511 245.395 154.048 244.864 154.048 244.207V217.492C154.048 216.841 154.579 216.304 155.235 216.304H159.694C162.338 216.304 165.541 216.681 167.488 218.674C169.401 220.638 169.778 223.749 169.778 226.364V244.207C169.778 244.858 170.309 245.395 170.965 245.395H183.264C183.915 245.395 184.451 244.864 184.451 244.207V225.565C184.451 222.562 183.892 219.313 181.825 217.001C179.718 214.648 176.344 213.649 173.323 213.215C173.312 213.215 173.306 213.215 173.295 213.209C170.428 212.724 170.366 208.996 173.221 208.533C176.412 207.951 180.106 206.775 182.259 204.188C184.411 201.602 184.902 197.731 184.902 194.493V184.798C184.902 179.802 184.183 172.894 179.929 169.548C175.116 165.762 163.052 165.443 157.234 165.443H140.247C139.579 165.443 139.043 165.974 139.043 166.625ZM224.778 227.809C224.778 229.882 224.573 232.554 223.117 234.164C221.655 235.791 219.257 236.116 217.19 236.116C215.112 236.116 212.657 235.802 211.184 234.164C209.734 232.548 209.522 229.876 209.522 227.809V183.148C209.522 181.087 209.739 178.472 211.161 176.85C212.628 175.178 215.083 174.835 217.185 174.835C219.274 174.835 221.672 175.189 223.134 176.85C224.556 178.472 224.773 181.081 224.773 183.148V227.809H224.778ZM240.246 225.023V185.872C240.246 183.514 240.194 181.133 240.006 178.775C239.886 177.273 239.709 175.663 239.332 174.201C238.801 172.163 237.871 170.324 236.437 168.766C234.879 167.07 232.88 166.048 230.676 165.46C229.021 165.014 227.154 164.815 225.446 164.672C222.706 164.449 219.925 164.392 217.173 164.392C214.404 164.392 211.612 164.449 208.854 164.672C207.119 164.815 205.234 165.014 203.55 165.46C201.34 166.042 199.319 167.064 197.76 168.766C196.327 170.319 195.397 172.157 194.866 174.201C194.489 175.663 194.312 177.273 194.192 178.775C194.004 181.127 193.952 183.508 193.952 185.872V225.023C193.952 227.381 194.004 229.762 194.203 232.114C194.329 233.621 194.517 235.237 194.906 236.705C195.448 238.743 196.344 240.633 197.772 242.197C199.239 243.802 201.055 244.835 203.139 245.429C204.709 245.88 206.645 246.051 208.272 246.177C211.229 246.399 214.221 246.451 217.185 246.451C220.137 246.451 223.128 246.405 226.075 246.177C227.702 246.051 229.626 245.88 231.196 245.429C233.286 244.829 235.079 243.784 236.552 242.186C237.951 240.673 238.853 238.886 239.367 236.893C239.743 235.437 239.909 233.81 240.029 232.32C240.2 229.899 240.246 227.449 240.246 225.023ZM260.938 221.865H249.867C249.216 221.865 248.679 222.396 248.679 223.053V228.728C248.679 233.027 249.187 239.662 252.613 242.785C256.181 246.028 263.735 246.451 268.269 246.451H273.527C278.295 246.451 284.69 245.823 288.367 242.408C291.929 239.103 292.649 233.439 292.649 228.842V217.435C292.649 213.872 292.272 208.802 290.062 205.827C287.904 202.926 283.468 201.253 280.128 200.306C278.546 199.86 276.959 199.421 275.411 199.004C275.406 199.004 275.4 198.998 275.389 198.998C269.765 197.576 262.982 194.585 262.982 187.802V182.332C262.982 180.248 263.244 177.758 264.706 176.148C266.202 174.498 268.617 174.144 270.73 174.144C272.922 174.144 275.423 174.515 276.896 176.325C278.306 178.067 278.477 180.984 278.477 183.131V184.873C278.477 185.523 279.008 186.06 279.665 186.06H290.057C290.707 186.06 291.244 185.529 291.244 184.873V181.869C291.244 179.106 291.221 175.297 290.525 172.614C290.131 171.107 289.469 169.725 288.349 168.623L288.315 168.589C286.756 166.99 284.638 166.054 282.508 165.483C279.157 164.592 275.337 164.392 271.883 164.392H266.042C261.777 164.392 255.616 164.923 252.436 168.178C249.187 171.501 248.69 178.067 248.69 182.429V190.257C248.69 193.894 249.079 199.027 251.305 202.076C253.486 205.056 257.946 206.763 261.36 207.74C262.942 208.191 264.569 208.562 266.173 208.91C269.439 209.618 274.207 210.908 276.445 213.581L276.462 213.603C276.473 213.615 276.479 213.626 276.491 213.638L276.508 213.66C277.244 214.614 277.77 215.699 278.049 216.824C278.049 216.829 278.055 216.835 278.055 216.846C278.432 218.274 278.483 220.021 278.483 221.494V227.489C278.483 229.682 278.203 232.354 276.656 234.05C275.08 235.78 272.505 236.128 270.29 236.128C268.08 236.128 265.711 235.7 264.118 234.032C262.53 232.371 262.137 229.933 262.137 227.718V223.059C262.125 222.396 261.588 221.865 260.938 221.865Z" fill="white"/>
</mask>
<g mask="url(#mask18_1758_1482)">
<path d="M292.648 164.392H23.9192V246.445H292.648V164.392Z" fill="white"/>
</g>
<mask id="mask19_1758_1482" style="mask-type:luminance" maskUnits="userSpaceOnUse" x="49" y="134" width="259" height="21">
<path d="M60.4454 148.919C69.8834 149.753 79.4585 150.015 88.9593 149.941C99.7276 149.861 110.507 149.359 121.219 148.611C145.684 146.898 170.133 143.917 194.239 140.543C214.28 137.74 234.812 135.433 255.218 134.519C269.423 133.88 284.4 133.874 298.463 135.593L300.444 135.833L307.358 137.928L299.884 138.625L297.886 138.476C290.515 137.922 283.041 137.785 275.63 137.888C266.791 138.014 257.953 138.476 249.166 139.15C227.298 140.823 205.43 143.746 183.985 147.138L183.927 147.143C170.892 148.948 157.795 150.558 144.634 151.848C133.363 152.95 122.007 153.829 110.644 154.286C101.206 154.663 91.6599 154.766 82.2276 154.315C74.6567 153.949 66.9258 153.218 59.6175 151.763L57.7676 151.391L53.1142 149.713L49.4601 147.703L58.5441 148.748L60.4454 148.919Z" fill="white"/>
</mask>
<g mask="url(#mask19_1758_1482)">
<path d="M307.352 133.869H49.4542V154.766H307.352V133.869Z" fill="white"/>
</g>
<path fill-rule="evenodd" clip-rule="evenodd" d="M183.527 145.716C127.859 153.424 85.6416 155.439 60.1881 150.363C95.8619 153.521 143.001 149.21 194.644 141.97C241.674 135.404 275.018 134.199 298.108 137.026C270.862 134.97 232.43 137.979 183.527 145.716Z" fill="white"/>
<mask id="mask20_1758_1482" style="mask-type:luminance" maskUnits="userSpaceOnUse" x="0" y="122" width="308" height="25">
<path d="M9.31495 124.927C17.9822 127.702 27.2717 129.655 36.5613 131.099C48.1233 132.892 59.9822 133.943 71.784 134.554C86.1951 135.296 100.715 135.393 115.154 135.107C132.415 134.759 149.675 133.857 166.849 132.601C181.209 131.55 195.597 130.631 210.003 129.952C222.244 129.381 234.531 128.975 246.801 128.935C256.69 128.901 266.699 129.089 276.537 129.832C283.862 130.386 291.599 131.265 298.57 132.972L300.432 133.429L307.78 136.546L299.33 136.078L297.411 135.764C289.115 134.394 280.151 133.966 271.649 133.863C260.453 133.731 249.159 134.194 238.014 134.896C224.642 135.741 211.299 136.963 198.024 138.362C183.013 139.943 168.048 141.771 153.123 143.723L153.072 143.729L153.021 143.735C136.942 145.259 120.67 146.235 104.443 146.275C91.1054 146.31 77.6763 145.704 64.5328 144.1C43.8068 141.571 23.9088 136.529 7.17955 127.405L5.7236 126.611L0.339417 122.695L7.63632 124.396L9.31495 124.927Z" fill="white"/>
</mask>
<g mask="url(#mask20_1758_1482)">
<path d="M307.786 122.683H0.339478V146.298H307.786V122.683Z" fill="white"/>
</g>
<mask id="mask21_1758_1482" style="mask-type:luminance" maskUnits="userSpaceOnUse" x="8" y="126" width="290" height="19">
<path d="M152.748 142.285C82.0968 148.988 37.2077 141.931 8.45978 126.252C40.1882 136.409 92.3056 139.276 167.073 134.046C228.406 129.324 274.757 128.678 297.898 134.342C268.676 129.524 215.325 134.108 152.748 142.285Z" fill="white"/>
</mask>
<g mask="url(#mask21_1758_1482)">
<path d="M297.892 126.252H8.45374V148.988H297.892V126.252Z" fill="white"/>
</g>
</svg>
