<svg  viewBox="0 0 183 146" fill="none" xmlns="http://www.w3.org/2000/svg">
<path fill-rule="evenodd" clip-rule="evenodd" d="M0.400146 0.529999H10.3801V21.91C10.3801 23.4 10.7401 24.46 11.4601 25.19C12.1501 25.88 13.2301 26.25 14.7101 26.25C16.1901 26.25 17.3001 25.85 18.0601 25.09C18.8501 24.3 19.2101 23.17 19.2101 21.65V0.539993H27.0601V22.61C27.0601 26.32 25.9401 29.13 23.7401 31.08C21.5401 33.03 18.3201 33.99 14.1501 33.99C9.49015 33.99 6.00011 33.06 3.74011 31.14C1.51011 29.22 0.390137 26.31 0.390137 22.37V0.529999H0.400146ZM32.3501 33.32V0.529999H41.7802L52.2601 17.8L51.8701 0.529999H60.1101V33.32H52.0302L40.1401 13.56L40.5302 33.32H32.3501ZM65.4901 33.32V0.529999H75.6701V33.32H65.4901ZM91.1401 25.68H93.3701C95.2401 25.68 96.7201 24.85 97.8401 23.23C98.9902 21.61 99.5501 19.46 99.5501 16.78C99.5501 14.1 98.9901 11.98 97.9401 10.43C96.8901 8.83999 95.4401 8.08 93.6701 8.08H91.1401V25.68ZM81.1201 33.32V0.529999H93.6701C95.6401 0.529999 97.4101 0.699998 98.9601 1.06C100.54 1.39 101.88 1.94999 103.07 2.67999C105.27 4.09999 107.01 6.05999 108.26 8.53999C109.48 11.02 110.1 13.8 110.1 16.91C110.1 19.66 109.54 22.2 108.46 24.59C107.38 27.01 105.9 28.89 104.06 30.31C102.65 31.34 101.07 32.1 99.3301 32.59C97.5901 33.09 95.5501 33.32 93.2501 33.32H81.1201ZM110.78 33.32L120.8 0.529999H131.41L141.66 33.32H131.35L129.45 26.73H120.68L118.84 33.32H110.78ZM122.47 19.66H127.76L125.13 10.1L122.47 19.66ZM149.21 33.32L138.93 0.529999H149.34L155.12 22.54L161.23 0.529999H169.6L159.16 33.32H149.21ZM172.69 33.32V0.529999H182.87V33.32H172.69Z" fill="white"/>
<path fill-rule="evenodd" clip-rule="evenodd" d="M172.24 41.12C164.77 128.48 65.82 120.75 62.25 41.12C72.06 105.85 135.93 86.35 134.91 41.12H172.24Z" fill="white"/>
<path fill-rule="evenodd" clip-rule="evenodd" d="M0.330078 41.12C12.7901 186.53 176.93 173.71 182.91 41.12C167.18 150.19 54.8101 131.92 51.8701 41.12H0.330078Z" fill="white"/>
</svg>
